PathFileType	3	(X/Y/Z)	F:\ViconData\AntennenMessung\Messung1\Session1\ID22.trc
DataRate	CameraRate	NumFrames	NumMarkers	Units	OrigDataRate	OrigDataStartFrame	OrigNumFrames
120.0	120.0	4	70	mm	120.0	1	1060	
Frame#	Time	Ashort			Along			Atop			A4			Bshort			Blong			Btop			B4			Cshort			Clong			Ctop			C4			Dshort			Dlong			Dtop			D4			Eshort			Elong			Etop			E4			Fshort			Flong			Ftop			F4			Gshort			Glong			Gtop			G4			Hshort			Hlong			Htop			H4			I1			I2			I3			I4			I5			WandAshort			WandAlong			WandAtop			WandA4			WandA15			WandBshort			WandB4			WandB5			WandBtop			WandBlong			WandCshort			WandClong			WandCtop			WandC4			WandC5			Acenter			Aantenna			Bcenter			Bantenna			Ccenter			Cantenna			Dcenter			Dantenna			Ecenter			Eantenna			Fcenter			Fantenna			Gcenter			Gantenna			Hcenter			Hantenna			Icenter			Iantenna			
		X1	Y1	Z1	X2	Y2	Z2	X3	Y3	Z3	X4	Y4	Z4	X5	Y5	Z5	X6	Y6	Z6	X7	Y7	Z7	X8	Y8	Z8	X9	Y9	Z9	X10	Y10	Z10	X11	Y11	Z11	X12	Y12	Z12	X13	Y13	Z13	X14	Y14	Z14	X15	Y15	Z15	X16	Y16	Z16	X17	Y17	Z17	X18	Y18	Z18	X19	Y19	Z19	X20	Y20	Z20	X21	Y21	Z21	X22	Y22	Z22	X23	Y23	Z23	X24	Y24	Z24	X25	Y25	Z25	X26	Y26	Z26	X27	Y27	Z27	X28	Y28	Z28	X29	Y29	Z29	X30	Y30	Z30	X31	Y31	Z31	X32	Y32	Z32	X33	Y33	Z33	X34	Y34	Z34	X35	Y35	Z35	X36	Y36	Z36	X37	Y37	Z37	X38	Y38	Z38	X39	Y39	Z39	X40	Y40	Z40	X41	Y41	Z41	X42	Y42	Z42	X43	Y43	Z43	X44	Y44	Z44	X45	Y45	Z45	X46	Y46	Z46	X47	Y47	Z47	X48	Y48	Z48	X49	Y49	Z49	X50	Y50	Z50	X51	Y51	Z51	X52	Y52	Z52	X53	Y53	Z53	X54	Y54	Z54	X55	Y55	Z55	X56	Y56	Z56	X57	Y57	Z57	X58	Y58	Z58	X59	Y59	Z59	X60	Y60	Z60	X61	Y61	Z61	X62	Y62	Z62	X63	Y63	Z63	X64	Y64	Z64	X65	Y65	Z65	X66	Y66	Z66	X67	Y67	Z67	X68	Y68	Z68	X69	Y69	Z69	X70	Y70	Z70	
1	0	-1038.2261	214.67191	-1644.0487	-1109.5669	204.01331	-1599.4655	-1063.4175	172.90268	-1626.0668	-1054.0997	262.30182	-1634.8856	-1352.5262	235.51054	1003.226	-1281.3849	227.586	1052.089	-1322.5975	194.03679	1020.8579	-1284.5012	288.00684	1052.5706	814.00165	187.81483	1209.4368	892.41809	178.6282	1178.8895	844.55334	145.34622	1198.3984	861.04437	292.37149	1168.3578	1115.9049	210.15712	-1401.8602	1056.3811	194.22063	-1460.2852	1094.9033	162.18382	-1423.9531	1069.7024	239.48135	-1426.3446	-1204.5778	1685.952	-1563.2283	-1129.1309	1688.3625	-1605.9893	-1173.2211	1724.5182	-1581.8994	-1134.0215	1581.1183	-1603.8844	-1239.7606	1699.2941	1119.5804	-1309.5483	1698.9871	1072.021	-1270.5931	1736.4941	1096.9832	-1245.6619	1592.8574	1110.7261	988.85858	1664.1299	1162.1066	957.14209	1700.4463	1183.8702	921.54504	1662.3405	1214.7649	939.75745	1659.4008	1159.7717	999.09253	1668.4146	-1579.454	1059.0483	1670.2456	-1518.7919	1025.0209	1708.0354	-1551.2424	1059.2676	1672.2446	-1585.6818	-272.63364	1636.6942	-232.06781	-187.45775	1640.0151	-237.7888	-235.8799	1675.2361	-234.29642	-233.56367	1637.7296	-202.94995	-239.4933	1639.104	-281.71881																																														-1068.4266	210.15982	-1625.1754	-1073.6219	248.80116	-1624.2507	-1321.0883	232.00861	1024.8188	-1319.5479	270.76785	1028.8621	848.17383	183.81149	1196.1248	851.82233	222.5728	1193.8337	1088.6184	202.85162	-1428.6429	1082.7003	241.14619	-1433.0591	-1171.928	1686.9951	-1581.733	-1170.5848	1648.0187	-1581.5603	-1271.2186	1699.1555	1098.1421	-1271.8716	1660.1798	1099.3519	952.41003	1705.8645	1187.1172	972.44067	1734.1106	1169.1747	1026.5947	1669.2544	-1551.6276	1028.1763	1630.2885	-1552.0146	-234.45775	1638.1825	-234.63196	-232.96205	1599.2128	-234.98485
2	0.0083333333	-1038.2144	214.67499	-1644.0327	-1109.4393	204.44075	-1599.3102	-1063.6138	171.35246	-1625.0205	-1054.097	262.30692	-1634.8523	-1352.5946	235.48386	1003.2817	-1281.3986	227.55173	1052.1161	-1322.5673	194.04123	1020.8634	-1284.5299	287.9216	1052.6411	814.03735	187.81409	1209.3436	892.45178	178.71991	1178.9054	844.52307	145.36374	1198.3876	861.06427	292.41672	1168.1982	1115.9049	210.14534	-1401.8444	1056.3442	194.20413	-1460.3081	1094.8638	162.09181	-1423.8846	1069.6814	239.42029	-1426.385	-1204.5818	1685.9462	-1563.2126	-1129.1349	1688.3621	-1605.9922	-1173.2272	1724.5243	-1581.9102	-1134.012	1581.1263	-1603.8988	-1239.7509	1699.2784	1119.578	-1309.3943	1698.7327	1071.9183	-1270.579	1736.4637	1096.9736	-1245.6833	1592.8781	1110.7373	988.83551	1664.1116	1162.0876	955.89313	1702.2617	1180.9906	921.61182	1662.3547	1214.7866	939.73383	1659.4323	1159.7876	999.08551	1668.4398	-1579.4442	1059.0317	1670.2523	-1518.7913	1025.0137	1708.0293	-1551.2472	1059.2904	1672.1932	-1585.5071	-272.62167	1636.6946	-232.06772	-187.19363	1640.2439	-237.74457	-235.88519	1675.2313	-234.29749	-233.57904	1637.7318	-202.95439	-239.50847	1639.1068	-281.70941																																														-1069.0023	210.2511	-1624.7007	-1074.3535	248.88091	-1624.3831	-1321.0991	231.97485	1024.8848	-1319.5994	270.72885	1028.9932	848.10724	183.86279	1196.1187	851.71625	222.62817	1193.834	1088.616	202.84154	-1428.6307	1082.7443	241.13812	-1433.0911	-1171.9233	1686.9919	-1581.7302	-1170.5696	1648.0159	-1581.5436	-1271.0817	1699.033	1098.137	-1271.6052	1660.0552	1099.3485	953.1001	1705.4961	1182.5931	972.79205	1732.4755	1162.4602	1026.5741	1669.2709	-1551.6313	1028.1429	1630.3043	-1552.0175	-234.37085	1638.2837	-234.60954	-232.77377	1599.3177	-234.93864
3	0.016666667	-1038.2081	214.6898	-1644.0283	-1109.4467	204.46788	-1599.3269	-1063.4108	172.88911	-1626.108	-1054.1007	262.30933	-1634.8771	-1352.5392	235.455	1003.4299	-1281.4299	227.50676	1052.1943	-1322.5308	194.04312	1020.8206	-1284.5027	287.8905	1052.5612	814.01544	187.90245	1209.3745	892.44226	178.66672	1178.9591	844.56976	145.34212	1198.3397	861.12225	292.4541	1168.2725	1115.9133	210.16638	-1401.8545	1056.3733	194.17969	-1460.2992	1094.9069	162.19882	-1423.8982	1069.6835	239.47711	-1426.3541	-1204.5863	1685.9513	-1563.2146	-1129.1321	1688.3466	-1605.9796	-1173.2157	1724.5193	-1581.9207	-1134.0248	1581.12	-1603.9	-1239.749	1699.2816	1119.5773	-1309.3401	1698.6528	1071.8962	-1270.6154	1736.5374	1097.0093	-1245.689	1592.8691	1110.7413	988.90607	1664.1652	1162.083	957.23474	1700.4521	1183.8768	921.59271	1662.3682	1214.7673	939.75995	1659.3984	1159.7435	999.0896	1668.4215	-1579.4432	1059.0338	1670.2592	-1518.8182	1025.0103	1708.03	-1551.2462	1059.2834	1672.1951	-1585.5087	-272.61319	1636.6776	-232.07318	-187.19856	1640.2345	-237.69226	-235.87044	1675.2268	-234.29616	-233.57692	1637.7446	-202.95282	-239.50699	1639.0995	-281.71051																																														-1068.219	210.38356	-1625.1967	-1073.1782	249.05556	-1624.2567	-1321.1362	231.94493	1024.965	-1319.7108	270.68796	1029.2013	848.23926	183.87215	1196.1019	851.93066	222.63176	1193.8507	1088.6372	202.84267	-1428.6287	1082.7306	241.13431	-1433.0854	-1171.9167	1686.9884	-1581.7306	-1170.5676	1648.0122	-1581.5333	-1271.0464	1698.9988	1098.1334	-1271.4941	1660.0188	1099.3009	952.474	1705.9065	1187.1527	972.51398	1734.1602	1169.2327	1026.5886	1669.2644	-1551.6318	1028.1753	1630.2986	-1552.0195	-234.35083	1638.2709	-234.5903	-232.7486	1599.3051	-234.90047
4	0.025	-1038.2279	214.66953	-1644.0466	-1109.4369	204.44576	-1599.3452	-1063.4376	172.89658	-1626.0696	-1054.1171	262.3168	-1634.8641	-1352.5199	235.39694	1003.5133	-1281.3871	227.48036	1052.1919	-1322.569	194.0114	1020.8145	-1284.6082	287.96619	1052.6514	813.9259	187.71217	1209.3771	892.2196	178.75502	1178.8988	844.54553	145.46609	1198.1951	861.10107	292.42184	1168.2401	1115.9109	210.17169	-1401.8486	1056.3699	194.19237	-1460.2974	1094.8687	162.10991	-1423.8695	1069.6615	239.41322	-1426.3844	-1204.5793	1685.9509	-1563.2319	-1129.1184	1688.3519	-1605.9851	-1173.2151	1724.5101	-1581.9082	-1134.0273	1581.1184	-1603.9026	-1239.7322	1699.2488	1119.5665	-1309.3596	1698.6785	1071.8986	-1270.5106	1736.3716	1096.9463	-1245.6996	1592.9095	1110.7448	988.8421	1664.1207	1162.1002	956.09003	1702.4027	1180.9895	921.64398	1662.3422	1214.829	939.77344	1659.4155	1159.7836	999.09589	1668.4148	-1579.4407	1059.0415	1670.2611	-1518.8062	1025.0099	1708.0227	-1551.2322	1059.2788	1672.1975	-1585.5156	-272.60928	1636.6868	-232.0591	-187.4697	1639.9956	-237.77898	-235.94479	1675.2191	-234.25879	-233.56161	1637.7197	-202.94608	-239.49031	1639.0905	-281.70132																																														-1068.2645	210.35703	-1625.191	-1073.2473	249.02678	-1624.2844	-1321.1855	231.90965	1024.9563	-1319.7712	270.65332	1029.1906	848.1048	183.80196	1196.0718	851.70471	222.576	1193.9243	1088.6189	202.84718	-1428.64	1082.744	241.14047	-1433.1243	-1171.9225	1686.9899	-1581.7339	-1170.5798	1648.0134	-1581.553	-1271.0242	1698.9924	1098.1434	-1271.5597	1660.0161	1099.392	953.44501	1705.4941	1182.5149	973.26013	1732.382	1162.3804	1026.5981	1669.2618	-1551.6223	1028.1949	1630.2966	-1552.0144	-234.52893	1638.1666	-234.61742	-233.03983	1599.1969	-234.9946
